<svg width="82.2285" height="69.8523" viewBox="0 0 82.2285 69.8523" fill="none" xmlns="http://www.w3.org/2000/svg">
<g transform="translate(41.1142 34.9261) rotate(10.15) translate(-36.5876 -28.9297)">
<path id="Vector" d="M7.03162 57.8594C5.09793 57.8594 3.44315 57.1519 2.0673 55.7367C0.691443 54.3216 0.00234387 52.6183 0 50.627V7.23243C0 5.24351 0.689099 3.54148 2.0673 2.12633C3.4455 0.711188 5.10027 0.00241081 7.03162 0H25.2259C26.1635 0 27.0577 0.180811 27.9085 0.542432C28.7593 0.904054 29.5059 1.41635 30.1481 2.07932L35.1581 7.23243H66.8004C67.7966 7.23243 68.6322 7.57959 69.3072 8.2739C69.9822 8.96821 70.3186 9.82646 70.3162 10.8486C70.3139 11.8708 69.9764 12.7303 69.3037 13.427C68.631 14.1237 67.7966 14.4697 66.8004 14.4649H20.5675C16.9345 14.4649 13.7703 15.6401 11.0748 17.9907C8.37935 20.3412 7.03162 23.3246 7.03162 26.9408V50.627L13.9754 26.8504C14.4441 25.2834 15.309 24.0334 16.57 23.1004C17.831 22.1674 19.2221 21.6997 20.7433 21.6973H66.0973C68.4997 21.6973 70.3901 22.6773 71.7683 24.6373C73.1465 26.5973 73.5121 28.7212 72.8652 31.009L66.5367 52.7063C66.068 54.2734 65.2042 55.5246 63.9456 56.46C62.6869 57.3954 61.2947 57.8618 59.7688 57.8594H7.03162Z" fill="url(#paint0_linear_0_4)"/>
<defs>
<linearGradient id="paint0_linear_0_4" x1="-13.9175" y1="-19.8577" x2="63.3748" y2="58.536" gradientUnits="userSpaceOnUse">
<stop stop-color="#3385FF"/>
<stop offset="1" stop-color="#3385FF" stop-opacity="0"/>
</linearGradient>
</defs>
</g>
</svg>
